# xmcd
#
# Track frame offsets:
#	150
#	17118
#	34584
#	52984
#	71113
#	87993
#	102227
#	120080
#	134153
#	149200
#	166851
#	183463
#	202174
#	213595
#	230090
#	246674
#	261292
#	274022
#	292151
#	309802
#	326386
#
# Disc length: 4519 seconds
#
# Revision: 0
# Processed by: cddbd v1.5.2PL0 Copyright (c) Steve Scherf et al.
# Submitted via: audiograbber 1.83.01
#
DISCID=4b11a515
DTITLE=TopTunes - TT071
DYEAR=1900
DGENRE=Karaoke
TTITLE0=Tamara Walker - Angel Eyes
TTITLE1=3 Of Hearts - Arizona Rain
TTITLE2=Shannon Brown - Baby I Lied
TTITLE3=Jo Dee Messina and Tim Mcgraw - Bring On The Rain
TTITLE4=Lila Mccann - Complete
TTITLE5=Terri Clark - Getting There
TTITLE6=Dixie Chicks - Hello Mr Heartache
TTITLE7=Reba Mcintyre - I'm A Survivor
TTITLE8=Kristin Garner - Let's Burn It Down
TTITLE9=3 Of Hearts - Love Is Enough
TTITLE10=Sara Evans - Saints And Angels
TTITLE11=Jamie O Neal - Shiver
TTITLE12=Dixie Chicks - Some Days You Gotta Dance
TTITLE13=Leann Rimes - Soon
TTITLE14=Lee Ann Womack - Stronger Than I Am
TTITLE15=Alison Krauss - Lucky One
TTITLE16=Kortney Kayle - Unbroken By You
TTITLE17=Jo Dee Messina and Tim Mcgraw - Bring On The Rain (Vocal Version)
TTITLE18=3 Of Hearts - Love Is Enough (Vocal Version)
TTITLE19=Lee Ann Womack - Stronger Than I Am (Vocal Version)
TTITLE20=Kortney Kayle - Unbroken By You (Vocal Version)
EXTD=
EXTT0=
EXTT1=
EXTT2=
EXTT3=
EXTT4=
EXTT5=
EXTT6=
EXTT7=
EXTT8=
EXTT9=
EXTT10=
EXTT11=
EXTT12=
EXTT13=
EXTT14=
EXTT15=
EXTT16=
EXTT17=
EXTT18=
EXTT19=
EXTT20=
PLAYORDER=
